<svg width="470" height="442" viewBox="0 0 470 442" fill="none" xmlns="http://www.w3.org/2000/svg">
<g opacity="0.15">
<path d="M263.44 109.913C248.314 112.102 235.408 124.678 242.763 155.74C215.601 161.376 178.699 165.01 182.469 164.465C165.675 115.144 197.591 56.9081 254.841 51.2883C309.808 38.849 358.588 84.8824 357.871 139.083C350.227 140.19 308.539 146.222 294.836 148.205C303.491 130.889 287.226 106.471 263.44 109.913Z" fill="url(#paint0_linear_170_6)"/>
<path d="M357.871 139.083L294.836 148.205C288.61 157.549 284.104 160.431 274.448 161.864L142.897 180.9L138.667 152.063C137.85 145.588 136.526 145.347 132.801 150.234L80.966 216.633C77.7917 221.079 78.1762 223.382 82.504 227.119L151.642 278.689C157.385 281.89 157.69 279.024 156.355 272.653L151.741 241.194L192.85 235.246C205.995 346.187 224.4 386.156 315.305 402.25C369.68 401.456 402.218 386.405 432.867 345.081C449.789 314.946 456.862 298.775 451.094 259.452C437.154 202.572 421.224 181.657 366.813 161.884C359.74 187.92 351.902 198.717 332.24 212.399C365.376 218.906 380.137 227.811 392.771 262.537C397.279 290.797 393.478 304.421 373.824 324.176C360.671 336.626 352.642 340.465 337.377 342.836C318.299 345.912 307.894 341.781 291.22 333.452C278.757 326.204 272.607 321.107 265.065 307.788L253.145 226.521C324.402 216.21 352.197 190.664 357.871 139.083Z" fill="url(#paint1_linear_170_6)"/>
</g>
<path d="M205.439 90.175C190.314 92.3638 177.408 104.94 184.763 136.002C157.601 141.637 120.698 145.272 124.468 144.726C107.674 95.4052 139.59 37.1698 196.841 31.55C251.808 19.1108 300.588 65.1441 299.87 119.345C292.226 120.451 250.539 126.484 236.835 128.467C245.491 111.151 229.225 86.7331 205.439 90.175Z" fill="url(#paint2_linear_170_6)"/>
<path d="M299.87 119.345L236.835 128.467C230.61 137.811 226.103 140.693 216.448 142.125L84.8962 161.161L80.6666 132.324C79.8496 125.849 78.525 125.608 74.8008 130.496L22.9655 196.894C19.7912 201.341 20.1757 203.644 24.5035 207.38L93.6419 258.951C99.3848 262.151 99.6898 259.286 98.3542 252.914L93.74 221.456L134.85 215.507C147.995 326.448 166.4 366.417 257.304 382.512C311.679 381.718 344.218 366.667 374.867 325.343C391.789 295.208 398.862 279.036 393.094 239.714C379.153 182.833 363.224 161.918 308.812 142.146C301.74 168.182 293.902 178.978 274.239 192.66C307.376 199.168 322.136 208.073 334.771 242.799C339.278 271.059 335.478 284.683 315.824 304.438C302.671 316.887 294.642 320.727 279.377 323.098C260.299 326.174 249.893 322.042 233.219 313.714C220.756 306.465 214.607 301.369 207.064 288.05L195.144 206.783C266.402 196.472 294.197 170.925 299.87 119.345Z" fill="url(#paint3_linear_170_6)"/>
<defs>
<linearGradient id="paint0_linear_170_6" x1="237.54" y1="53.5263" x2="288.857" y2="408.161" gradientUnits="userSpaceOnUse">
<stop stop-color="white"/>
<stop offset="0.0895453" stop-color="#BEB4FA"/>
<stop offset="0.344545" stop-color="#9181F7"/>
<stop offset="1" stop-color="#5C43FF"/>
</linearGradient>
<linearGradient id="paint1_linear_170_6" x1="237.54" y1="53.5263" x2="288.857" y2="408.161" gradientUnits="userSpaceOnUse">
<stop stop-color="white"/>
<stop offset="0.0895453" stop-color="#BEB4FA"/>
<stop offset="0.344545" stop-color="#9181F7"/>
<stop offset="1" stop-color="#5C43FF"/>
</linearGradient>
<linearGradient id="paint2_linear_170_6" x1="179.54" y1="33.788" x2="230.856" y2="388.423" gradientUnits="userSpaceOnUse">
<stop stop-color="white"/>
<stop offset="0.0895453" stop-color="#BEB4FA"/>
<stop offset="0.344545" stop-color="#9181F7"/>
<stop offset="1" stop-color="#5C43FF"/>
</linearGradient>
<linearGradient id="paint3_linear_170_6" x1="179.54" y1="33.788" x2="230.856" y2="388.423" gradientUnits="userSpaceOnUse">
<stop stop-color="white"/>
<stop offset="0.0895453" stop-color="#BEB4FA"/>
<stop offset="0.344545" stop-color="#9181F7"/>
<stop offset="1" stop-color="#5C43FF"/>
</linearGradient>
</defs>
</svg>
