<?xml version="1.0" encoding="UTF-8"?>
<svg version="1.1" xmlns="http://www.w3.org/2000/svg" width="685" height="239">
<path d="M0 0 C0.70253906 0.43054687 1.40507812 0.86109375 2.12890625 1.3046875 C11.22010497 7.8536047 15.79456339 20.3302406 17.6015625 30.890625 C19.1444227 42.93098496 16.31467964 54.58061316 9.234375 64.46484375 C-1.29497228 77.43153993 -15.07746232 80.20368411 -30.82421875 82.04296875 C-31.61163452 82.13525757 -32.39905029 82.22754639 -33.21032715 82.32263184 C-35.14017738 82.54876901 -37.07008313 82.77443222 -39 83 C-39.12428105 88.95898975 -39.21465997 94.91721295 -39.2746582 100.87719727 C-39.29968848 102.90141963 -39.33372347 104.92555264 -39.37719727 106.94946289 C-39.43835747 109.87148164 -39.46632485 112.79229816 -39.48828125 115.71484375 C-39.51408768 116.60896469 -39.5398941 117.50308563 -39.56648254 118.42430115 C-39.56971692 125.79147923 -37.31320912 131.33300697 -32.35322571 136.82261658 C-26.08170457 142.88718429 -18.65230783 145.21805882 -10.0625 145.5 C0.9364572 145.10675451 7.90464116 141.78544048 15.90625 134.31640625 C21.27149047 128.3806085 23.80985623 121.12683948 24.10546875 113.15625 C23.72044004 106.78089082 22.10239149 101.5610895 19 96 C18.49339844 95.05833984 18.49339844 95.05833984 17.9765625 94.09765625 C13.6515599 87.08869813 5.80534545 83.05403828 -2 81 C-1.505 79.515 -1.505 79.515 -1 78 C-0.319375 77.7525 0.36125 77.505 1.0625 77.25 C10.27134477 73.33134265 14.17071111 65.83347324 18 57 C18.99 57 19.98 57 21 57 C21 57.66 21 58.32 21 59 C21.66 59.20625 22.32 59.4125 23 59.625 C27.15887986 61.53115327 30.48304512 64.09525578 34 67 C34.67546875 67.55429688 35.3509375 68.10859375 36.046875 68.6796875 C47.92170858 79.40385891 52.08966583 95.70659453 53.4140625 111.140625 C53.92868091 124.95406663 50.07334017 137.74334755 42 149 C41.42636719 149.82886719 40.85273438 150.65773437 40.26171875 151.51171875 C31.41376988 163.47385253 18.18449015 172.2662191 3.5625 175.375 C-15.60177907 178.10876907 -33.45468627 174.13987309 -49.0625 162.5625 C-63.86425999 149.90799726 -69.58460366 134.29593086 -71.34375 115.28515625 C-73.35883525 87.7176705 -73.35883525 87.7176705 -70 81 C-70.53496094 81.16242188 -71.06992188 81.32484375 -71.62109375 81.4921875 C-74.48334954 82.10317806 -77.13671735 82.13225101 -80.0625 82.125 C-81.10535156 82.12757812 -82.14820313 82.13015625 -83.22265625 82.1328125 C-86 82 -86 82 -89 81 C-89.33 87.27 -89.66 93.54 -90 100 C-90.99 100.495 -90.99 100.495 -92 101 C-92.71414062 100.28457031 -93.42828125 99.56914063 -94.1640625 98.83203125 C-95.98554339 97.00990944 -97.81444996 95.19636133 -99.6484375 93.38671875 C-104.31723392 88.76474408 -108.89458105 84.1234173 -113.1640625 79.125 C-115.54126681 76.37351246 -117.98757535 73.68654314 -120.4375 71 C-121.30246094 70.05125 -122.16742188 69.1025 -123.05859375 68.125 C-124.01958984 67.073125 -124.01958984 67.073125 -125 66 C-123.33438163 61.66728387 -120.12551302 58.86477234 -116.875 55.6875 C-115.992677 54.81484497 -115.992677 54.81484497 -115.0925293 53.92456055 C-111.50052656 50.39575731 -107.82816424 47.01080434 -103.9765625 43.765625 C-100.52764171 40.68477086 -97.38180251 37.29386104 -94.19921875 33.94140625 C-92 32 -92 32 -89 32 C-88.505 39.92 -88.505 39.92 -88 48 C-84.98552734 47.98259766 -84.98552734 47.98259766 -81.91015625 47.96484375 C-79.97078576 47.9578926 -78.03141497 47.95097604 -76.09204102 47.94506836 C-74.74079614 47.94002943 -73.38955674 47.93319823 -72.03833008 47.92456055 C-70.09979566 47.91247581 -68.161222 47.90730172 -66.22265625 47.90234375 C-64.47094116 47.89448853 -64.47094116 47.89448853 -62.68383789 47.88647461 C-60 48 -60 48 -59 49 C-56.24682214 49.12594243 -53.52012577 49.18867916 -50.765625 49.203125 C-49.52036041 49.21167511 -49.52036041 49.21167511 -48.24993896 49.22039795 C-46.48792806 49.22986468 -44.72589932 49.23638854 -42.96386719 49.24023438 C-40.27507241 49.24990978 -37.58705168 49.28090409 -34.8984375 49.3125 C-33.18750454 49.31903288 -31.47656611 49.32428223 -29.765625 49.328125 C-28.5622348 49.3466452 -28.5622348 49.3466452 -27.33453369 49.36553955 C-22.73145684 49.34729524 -19.74180419 48.98015034 -16 46 C-13.71001259 42.0743073 -13.52885367 38.47589017 -14 34 C-15.82225186 30.35549628 -17.42201925 28.40721371 -20.75 26.0625 C-24.86121579 24.71844868 -27.88936954 24.6354402 -32 26 C-36.22085173 29.02800233 -37.64351847 31.94856416 -38.73828125 36.83984375 C-39.06561124 39.54153751 -39 42.27854927 -39 45 C-49.23 45 -59.46 45 -70 45 C-71.05241152 29.21382714 -69.68946842 19.54991197 -60.1640625 7.40234375 C-44.13320045 -10.39364932 -19.7996829 -12.98250813 0 0 Z " fill="#FEFEFE" transform="translate(131,9)"/>
<path d="M0 0 C0.82999512 0.00757324 1.65999023 0.01514648 2.51513672 0.02294922 C16.07472962 0.38570341 26.52142322 6.63939395 35.7734375 16.296875 C45.08717143 27.06465178 47.80957482 37.12998513 47.9375 51.125 C47.98100586 52.68250977 47.98100586 52.68250977 48.02539062 54.27148438 C48.12708347 66.74841424 43.173082 76.29542352 34.81640625 85.41015625 C25.11693224 94.58533437 12.21372515 99.19110878 -1.0234375 99.53125 C-9.11970218 99.18000207 -16.85813871 97.83783378 -23.4609375 92.8671875 C-25.41951199 91.24801501 -25.41951199 91.24801501 -28.375 90.4375 C-28.375 98.0275 -28.375 105.6175 -28.375 113.4375 C-37.285 113.4375 -46.195 113.4375 -55.375 113.4375 C-55.705 76.8075 -56.035 40.1775 -56.375 2.4375 C-47.795 2.1075 -39.215 1.7775 -30.375 1.4375 C-28.8966774 4.39414519 -29.31467217 7.17979737 -29.375 10.4375 C-28.68535156 9.96699219 -27.99570312 9.49648437 -27.28515625 9.01171875 C-26.34542969 8.38910156 -25.40570312 7.76648438 -24.4375 7.125 C-23.52097656 6.51011719 -22.60445312 5.89523438 -21.66015625 5.26171875 C-14.60505577 1.34408269 -8.03077792 -0.10352752 0 0 Z M-20.375 33.4375 C-24.32544005 39.01988821 -26.78239915 44.51171437 -26.375 51.4375 C-24.93086667 58.9621947 -21.4462099 65.01973901 -15.4375 69.75 C-8.37788761 73.6399905 -1.62827571 74.74494716 6.24609375 72.78515625 C13.75538643 70.12204332 18.50336073 65.99637877 22.5625 59.1875 C24.68886605 51.68267866 24.59350615 44.53759307 21.015625 37.5078125 C16.86067881 31.322078 10.93093518 26.99018452 3.625 25.4375 C-4.96810301 24.18986254 -14.34943135 27.06761315 -20.375 33.4375 Z " fill="#FEFEFE" transform="translate(637.375,85.5625)"/>
<path d="M0 0 C0 -2.31 0 -4.62 0 -7 C2.74731243 -8.37365621 4.81667064 -8.0128639 7.8828125 -7.87890625 C9.04941406 -7.83056641 10.21601563 -7.78222656 11.41796875 -7.73242188 C13.25294922 -7.64831055 13.25294922 -7.64831055 15.125 -7.5625 C16.35605469 -7.51029297 17.58710938 -7.45808594 18.85546875 -7.40429688 C21.90388588 -7.2743256 24.9519995 -7.13934981 28 -7 C28.55632655 19.4563685 29.09903673 45.91193203 29.125 72.375 C29.12749756 73.27780701 29.12999512 74.18061401 29.13256836 75.11077881 C29.1383459 77.62337302 29.13704954 80.13584263 29.1328125 82.6484375 C29.13479645 83.38743286 29.1367804 84.12642822 29.13882446 84.88781738 C29.11545193 89.88454807 29.11545193 89.88454807 28 91 C25.92737924 91.08767112 23.85179706 91.10695873 21.77734375 91.09765625 C19.88725586 91.09282227 19.88725586 91.09282227 17.95898438 91.08789062 C16.61848891 91.07953403 15.27799412 91.07106907 13.9375 91.0625 C12.59310058 91.0574866 11.2486994 91.05292342 9.90429688 91.04882812 C6.60282059 91.03699488 3.30143197 91.02050971 0 91 C-1.15392455 88.6921509 -1.53437166 86.52769669 -2 84 C-2.60585938 84.39832031 -3.21171875 84.79664063 -3.8359375 85.20703125 C-16.31284408 93.09627526 -28.47627708 94.66770958 -42.99609375 92.56640625 C-55.40092971 89.37092051 -64.91638776 80.82281037 -71.421875 70.1015625 C-80.64538363 54.15250297 -81.04948187 40.51575669 -76.45507812 22.91210938 C-72.83583438 10.35120461 -67.33171969 2.55609039 -56 -4 C-37.31847169 -12.94761153 -16.95868533 -12.11334666 0 0 Z M-43.75 21.25 C-47.56883549 25.9174656 -51.54641483 30.8010027 -52 37 C-52.05027344 37.65613281 -52.10054687 38.31226563 -52.15234375 38.98828125 C-52.50594834 47.17776356 -50.62223515 53.41275621 -45.4375 59.8125 C-39.93319265 65.56837533 -33.87345854 68.1176009 -25.9375 68.4375 C-18.31529364 68.06714201 -12.10478832 65.93097858 -6.50390625 60.66796875 C-0.17575469 53.64947338 0.2929999 45.75218548 0.23046875 36.66015625 C-0.09660046 32.88500147 -1.22729966 30.33267663 -3 27 C-3.495 26.01 -3.495 26.01 -4 25 C-4.66 25 -5.32 25 -6 25 C-6.25007813 24.39542969 -6.50015625 23.79085937 -6.7578125 23.16796875 C-8.18785771 20.67213513 -9.42519693 19.77775957 -11.875 18.3125 C-12.55304688 17.89613281 -13.23109375 17.47976562 -13.9296875 17.05078125 C-23.77011485 12.0563002 -35.51714894 14.51403095 -43.75 21.25 Z " fill="#FEFEFE" transform="translate(274,90)"/>
<path d="M0 0 C8.58 0 17.16 0 26 0 C26.06058594 2.84367187 26.12117188 5.68734375 26.18359375 8.6171875 C26.24557234 11.40073814 26.30888119 14.18425561 26.37231445 16.96777344 C26.41536936 18.88799021 26.45706223 20.80823806 26.49731445 22.72851562 C26.55573814 25.50400116 26.61921644 28.27933441 26.68359375 31.0546875 C26.70030624 31.8998996 26.71701874 32.74511169 26.73423767 33.61593628 C26.87608721 39.44841975 27.34512505 45.20319922 28 51 C28.66 51 29.32 51 30 51 C30.22429687 50.09121094 30.44859375 49.18242188 30.6796875 48.24609375 C32.28146131 42.63988541 34.76759388 37.38230693 37.125 32.0625 C38.73375 28.411875 40.3425 24.76125 42 21 C52.23 21 62.46 21 73 21 C72.20145161 24.99274195 71.31762673 27.94405369 69.75 31.625 C69.29882812 32.68589844 68.84765625 33.74679688 68.3828125 34.83984375 C67.15886842 37.6369363 65.90332842 40.4149665 64.625 43.1875 C62.40529847 48.06088318 60.23399456 52.95278918 58.125 57.875 C57.80225098 58.60098389 57.47950195 59.32696777 57.14697266 60.07495117 C56.8535498 60.76951416 56.56012695 61.46407715 56.2578125 62.1796875 C55.9911377 62.79569824 55.72446289 63.41170898 55.44970703 64.04638672 C54.37476365 68.71614618 56.58170482 72.42586619 58.84375 76.39453125 C59.42688965 77.42570068 60.0100293 78.45687012 60.61083984 79.51928711 C61.2342627 80.60604736 61.85768555 81.69280762 62.5 82.8125 C63.12986816 83.92439697 63.75973633 85.03629395 64.40869141 86.18188477 C66.26576931 89.45845325 68.13130775 92.73004426 70 96 C71.40256984 98.45605168 72.80452213 100.9124032 74.20117188 103.37182617 C74.96628747 104.71825775 75.7356217 106.06230347 76.50976562 107.40356445 C79 111.7764688 79 111.7764688 79 114 C68.77 114 58.54 114 48 114 C45.73125 109.978125 43.4625 105.95625 41.125 101.8125 C40.41230957 100.55284424 39.69961914 99.29318848 38.96533203 97.99536133 C38.40185059 96.9927124 37.83836914 95.99006348 37.2578125 94.95703125 C36.6817627 93.93585205 36.10571289 92.91467285 35.51220703 91.86254883 C34 89 34 89 32.92138672 86.19018555 C32.20969438 83.83358638 32.20969438 83.83358638 30 83 C29.34 82.01 28.68 81.02 28 80 C26.97464666 87.54886124 26.88317799 94.95213096 26.9375 102.5625 C26.958125 106.666875 26.97875 110.77125 27 115 C17.76 115 8.52 115 -1 115 C-0.67 77.05 -0.34 39.1 0 0 Z " fill="#FEFEFE" transform="translate(406,67)"/>
<path d="M0 0 C0.05123339 7.13090909 0.08595443 14.26176971 0.10986328 21.39282227 C0.11984373 23.81243666 0.13343284 26.23203924 0.15087891 28.65161133 C0.44317997 70.27012461 0.44317997 70.27012461 -10.30078125 81.37890625 C-20.71977104 90.17752438 -32.71625394 93.61748181 -46.3046875 93.24609375 C-56.38863304 92.32538568 -64.79480553 90.00344282 -73 84 C-74.00353516 83.28650391 -74.00353516 83.28650391 -75.02734375 82.55859375 C-81.73011498 77.35792347 -84.66144439 70.28180785 -86 62 C-87.31625856 50.58427924 -87.32852134 39.04171485 -87.55761719 27.56640625 C-87.62569136 24.21597295 -87.70320191 20.86583918 -87.78125 17.515625 C-87.82608612 15.39063685 -87.87037744 13.26563712 -87.9140625 11.140625 C-87.93796051 10.13662659 -87.96185852 9.13262817 -87.98648071 8.09820557 C-88.0033493 7.179245 -88.0202179 6.26028442 -88.03759766 5.31347656 C-88.05456696 4.50219299 -88.07153625 3.69090942 -88.08901978 2.8550415 C-88 1 -88 1 -87 0 C-85.01242972 -0.09983058 -83.0213248 -0.13080753 -81.03125 -0.1328125 C-79.82082031 -0.13410156 -78.61039062 -0.13539062 -77.36328125 -0.13671875 C-76.08839844 -0.13285156 -74.81351562 -0.12898438 -73.5 -0.125 C-71.58767578 -0.13080078 -71.58767578 -0.13080078 -69.63671875 -0.13671875 C-67.82107422 -0.13478516 -67.82107422 -0.13478516 -65.96875 -0.1328125 C-64.84919922 -0.13168457 -63.72964844 -0.13055664 -62.57617188 -0.12939453 C-60 0 -60 0 -59 1 C-58.89792352 2.64538275 -58.86430252 4.29506896 -58.8581543 5.94360352 C-58.85111984 6.99882706 -58.84408539 8.0540506 -58.83683777 9.14125061 C-58.83267349 10.29217697 -58.82850922 11.44310333 -58.82421875 12.62890625 C-58.80100841 15.05013879 -58.7768906 17.47136276 -58.75195312 19.89257812 C-58.71690792 23.72181821 -58.68754134 27.55074643 -58.67407227 31.38012695 C-58.65855155 35.06760914 -58.61829706 38.75416901 -58.57421875 42.44140625 C-58.57612717 43.57816299 -58.57803558 44.71491974 -58.58000183 45.88612366 C-58.47562098 52.70491817 -57.66611734 57.19966499 -54 63 C-50.31158131 66.09029674 -46.76072233 66.75375574 -42 67 C-37.07363775 66.08152568 -34.0990429 64.98448373 -31 61 C-27.08160522 55.17381534 -27.61609868 49.3564775 -27.70703125 42.6015625 C-27.71339851 40.81641739 -27.71339851 40.81641739 -27.71989441 38.99520874 C-27.73664831 35.20490625 -27.77429584 31.41514102 -27.8125 27.625 C-27.82755103 25.05078894 -27.8412387 22.47656953 -27.85351562 19.90234375 C-27.88654117 13.60138008 -27.93670855 7.30072843 -28 1 C-25.25122559 -0.37438721 -23.068565 -0.05789745 -20 0 C-14.92581574 0.05062933 -10.04979146 -0.20260281 -5.0234375 -0.87890625 C-3 -1 -3 -1 0 0 Z " fill="#FEFEFE" transform="translate(575,88)"/>
<path d="M0 0 C1.49609375 1.578125 1.49609375 1.578125 2.49609375 4.578125 C-3.60368423 9.72481267 -9.60787425 14.54459685 -16.50390625 18.578125 C-16.88160156 18.11921875 -17.25929688 17.6603125 -17.6484375 17.1875 C-22.95677559 11.27000836 -28.82231182 8.47899042 -36.671875 7.234375 C-43.4400313 6.91015194 -49.94547055 9.08947051 -55.31640625 13.140625 C-60.02894401 17.53534045 -61.96454892 23.341981 -63.00390625 29.578125 C-61.78742955 36.87698517 -59.37969215 42.89650069 -53.33984375 47.39453125 C-46.56713196 51.76076885 -40.40840489 52.5135078 -32.50390625 51.578125 C-27.08051655 49.98780772 -22.70450821 47.3722171 -18.50390625 43.578125 C-15.4605786 44.9365452 -13.38081474 46.46275524 -11.05078125 48.8359375 C-10.43203125 49.46113281 -9.81328125 50.08632812 -9.17578125 50.73046875 C-8.5415625 51.38144531 -7.90734375 52.03242188 -7.25390625 52.703125 C-6.60421875 53.36183594 -5.95453125 54.02054687 -5.28515625 54.69921875 C-3.68678898 56.32109143 -2.09328728 57.9474531 -0.50390625 59.578125 C-3.06797953 67.27034483 -9.62315743 71.8324169 -16.62890625 75.453125 C-30.65355513 81.90273205 -45.92539626 82.07075539 -60.5859375 77.6484375 C-72.98264006 73.03349046 -81.89854511 63.83215789 -87.75 52.07421875 C-93.02224497 39.7336893 -93.93509251 27.75102202 -89.44140625 14.953125 C-83.62350408 1.11053017 -74.22753214 -8.5618652 -60.50390625 -14.421875 C-59.79621094 -14.73125 -59.08851563 -15.040625 -58.359375 -15.359375 C-36.03919432 -23.97272858 -16.83459002 -14.49739342 0 0 Z " fill="#FEFEFE" transform="translate(397.50390625,100.421875)"/>
<path d="M0 0 C4.38299083 2.19149542 7.20074724 4.40190962 9 9 C9.68031111 14.01414487 9.55368338 17.82874671 7.375 22.4375 C3.73335668 26.36664148 0.32997533 28.12217703 -5 28.4375 C-10.01060739 28.20844366 -13.07368983 26.05337549 -16.48046875 22.421875 C-18.95782543 19.34079274 -19.94596151 17.34824807 -20.5625 13.375 C-19.89891992 9.39351951 -18.79022254 7.86772872 -16 5 C-14.9790625 3.88625 -14.9790625 3.88625 -13.9375 2.75 C-10.0079993 -0.79922643 -5.01982269 -0.61782433 0 0 Z " fill="#FEFEFE" transform="translate(600,206)"/>
<path d="M0 0 C7.92 0 15.84 0 24 0 C24.33 7.59 24.66 15.18 25 23 C27.64 23 30.28 23 33 23 C34.65079442 21.34920558 34.22549447 19.36263821 34.31640625 17.08984375 C34.37924805 15.60581055 34.37924805 15.60581055 34.44335938 14.09179688 C34.48267578 13.05087891 34.52199219 12.00996094 34.5625 10.9375 C34.62727539 9.37032227 34.62727539 9.37032227 34.69335938 7.77148438 C34.79981225 5.18113116 34.9018276 2.59067814 35 0 C36.98 0 38.96 0 41 0 C41.08741124 3.56234428 41.14052896 7.12441108 41.1875 10.6875 C41.21263672 11.69490234 41.23777344 12.70230469 41.26367188 13.74023438 C41.35826939 23.29458366 41.35826939 23.29458366 38 27 C33.96870512 29.70672656 29.68927301 29.76261533 25 29 C21.99381171 27.71519754 21.19079569 26.68372472 19 24 C18.23435193 20.99713912 18.11161051 18.08603063 18 15 C17.69295146 13.32829127 17.37437149 11.6579309 17 10 C17.66 10 18.32 10 19 10 C18.67 8.68 18.34 7.36 18 6 C15.03 5.505 15.03 5.505 12 5 C12 12.59 12 20.18 12 28 C10.02 28 8.04 28 6 28 C6 20.41 6 12.82 6 5 C3.69 5 1.38 5 -1 5 C-0.67 3.35 -0.34 1.7 0 0 Z " fill="#FDFDFD" transform="translate(494,206)"/>
<path d="M0 0 C2.5215021 -0.08172936 5.04029917 -0.14083373 7.5625 -0.1875 C8.26697266 -0.21263672 8.97144531 -0.23777344 9.69726562 -0.26367188 C16.2080355 -0.35368252 20.53718629 1.35812419 26 5 C28.15274948 4.69159401 28.15274948 4.69159401 30 4 C30.80197139 12.53653992 28.89148285 17.84841795 23.76953125 24.62890625 C18.9383226 28.37229308 12.90681561 28.22843921 7.0625 28.125 C6.37865234 28.11597656 5.69480469 28.10695312 4.99023438 28.09765625 C3.32666713 28.07438958 1.66328369 28.03853167 0 28 C-0.19706355 24.08375299 -0.38099159 20.16699634 -0.5625 16.25 C-0.61857422 15.13882813 -0.67464844 14.02765625 -0.73242188 12.8828125 C-0.78076172 11.81289062 -0.82910156 10.74296875 -0.87890625 9.640625 C-0.9260376 8.65610352 -0.97316895 7.67158203 -1.02172852 6.65722656 C-1.00187518 4.2293192 -0.71119313 2.30838443 0 0 Z M5 5 C5 10.94 5 16.88 5 23 C13.78490926 23.24611369 13.78490926 23.24611369 20.8125 19.8125 C22.76962553 16.8253084 22.41874237 14.46957964 22 11 C19.86320715 7.61060444 18.8225233 6.27417443 15 5 C13.27204648 4.93197033 11.54164635 4.91504355 9.8125 4.9375 C7.4303125 4.9684375 7.4303125 4.9684375 5 5 Z M27 9 C28 11 28 11 28 11 Z " fill="#FDFDFD" transform="translate(539,206)"/>
<path d="M0 0 C3.5 1.8125 3.5 1.8125 6 4 C6 4.99 6 5.98 6 7 C3.625 7.625 3.625 7.625 1 8 C0.34 7.34 -0.32 6.68 -1 6 C-3.58354218 5.83312552 -3.58354218 5.83312552 -6 6 C-6.33 6.66 -6.66 7.32 -7 8 C-6.34 8 -5.68 8 -5 8 C-5 8.66 -5 9.32 -5 10 C-3.948125 10.185625 -2.89625 10.37125 -1.8125 10.5625 C2.1602563 11.70335262 4.01096905 13.67475535 6.1796875 17.12890625 C7 19 7 19 7.125 22.1875 C5.65126912 25.87182719 4.50361106 27.10221067 1 29 C-3.34981329 29.70132859 -6.87650709 29.47808209 -10.9375 27.75 C-13.06077857 25.94843031 -14.0195412 24.58484592 -15 22 C-13.35 21.34 -11.7 20.68 -10 20 C-9.62875 20.495 -9.2575 20.99 -8.875 21.5 C-6.25305607 23.59755514 -4.26157528 23.21743835 -1 23 C-1 21.68 -1 20.36 -1 19 C-3.14627572 17.18603376 -3.14627572 17.18603376 -5.875 15.625 C-9.15942246 13.44470254 -10.81022706 12.32719473 -12.8125 8.875 C-13.04791876 5.26524568 -12.23652389 3.79565486 -10 1 C-6.78639862 -0.60680069 -3.48549193 -0.47764149 0 0 Z " fill="#FDFDFD" transform="translate(486,206)"/>
<path d="M0 0 C0 9.57 0 19.14 0 29 C-1.98 29 -3.96 29 -6 29 C-6 19.76 -6 10.52 -6 1 C-1 0 -1 0 0 0 Z " fill="#FDFDFD" transform="translate(576,205)"/>
<path d="M0 0 C0.99 0 1.98 0 3 0 C2.67 0.99 2.34 1.98 2 3 C1.34 2.01 0.68 1.02 0 0 Z " fill="#FFFFFF" transform="translate(490,207)"/>
<path d="M0 0 C1 4 1 4 1 4 Z " fill="#FFFFFF" transform="translate(537,216)"/>
<path d="M0 0 C0.66 0 1.32 0 2 0 C1.67 0.66 1.34 1.32 1 2 C0.67 1.34 0.34 0.68 0 0 Z " fill="#FFFFFF" transform="translate(536,207)"/>
<path d="M0 0 C2 1 2 1 2 1 Z " fill="#FFFFFF" transform="translate(484,216)"/>
<path d="M0 0 C2 1 2 1 2 1 Z " fill="#FFFFFF" transform="translate(89,56)"/>
<path d="" fill="#FFFFFF" transform="translate(0,0)"/>
<path d="" fill="#FFFFFF" transform="translate(0,0)"/>
<path d="" fill="#FFFFFF" transform="translate(0,0)"/>
<path d="" fill="#FFFFFF" transform="translate(0,0)"/>
<path d="" fill="#FFFFFF" transform="translate(0,0)"/>
</svg>
