<svg width="90" height="90" viewBox="0 0 90 90" fill="none" xmlns="http://www.w3.org/2000/svg">
<path d="M38.9906 34.26C40.3078 33.4367 40.7082 31.7016 39.885 30.3844C39.0617 29.0672 37.3266 28.6668 36.0094 29.49L26.0974 35.685C21.9849 38.2553 21.9849 44.2447 26.0974 46.815L36.0094 53.01C37.3266 53.8332 39.0617 53.4328 39.885 52.1156C40.7082 50.7984 40.3078 49.0633 38.9906 48.24L29.0786 42.045C28.4911 41.6778 28.4911 40.8222 29.0786 40.455L38.9906 34.26Z" fill="#5140B5"/>
<path d="M50.115 30.3844C49.2918 31.7016 49.6922 33.4367 51.0094 34.26L60.9214 40.455C61.5089 40.8222 61.5089 41.6778 60.9214 42.045L51.0094 48.24C49.6922 49.0633 49.2918 50.7984 50.115 52.1156C50.9382 53.4328 52.6734 53.8332 53.9906 53.01L63.9026 46.815C68.0151 44.2447 68.0151 38.2553 63.9026 35.685L53.9906 29.49C52.6734 28.6668 50.9382 29.0672 50.115 30.3844Z" fill="#5140B5"/>
<path fill-rule="evenodd" clip-rule="evenodd" d="M67.5 11.25H22.5C14.2157 11.25 7.5 17.9657 7.5 26.25V56.25C7.5 64.5343 14.2157 71.25 22.5 71.25H67.5C75.7843 71.25 82.5 64.5343 82.5 56.25V26.25C82.5 17.9657 75.7843 11.25 67.5 11.25ZM22.5 16.875H67.5C72.6777 16.875 76.875 21.0723 76.875 26.25V56.25C76.875 61.4277 72.6777 65.625 67.5 65.625H22.5C17.3223 65.625 13.125 61.4277 13.125 56.25V26.25C13.125 21.0723 17.3223 16.875 22.5 16.875Z" fill="#5140B5"/>
<path d="M37.5 72.1875C35.9467 72.1875 34.6875 73.4467 34.6875 75C34.6875 76.5533 35.9467 77.8125 37.5 77.8125H52.5C54.0533 77.8125 55.3125 76.5533 55.3125 75C55.3125 73.4467 54.0533 72.1875 52.5 72.1875H37.5Z" fill="#5140B5"/>
</svg>
