<svg width="85" height="85" viewBox="0 0 85 85" fill="none" xmlns="http://www.w3.org/2000/svg">
<path d="M31.8751 7.96875C24.5401 7.96875 18.5939 13.915 18.5939 21.25V29.3025C18.5939 33.7584 15.5612 37.6426 11.2383 38.7233C7.30663 39.7062 7.30662 45.2938 11.2383 46.2767C15.5612 47.3574 18.5939 51.2416 18.5939 55.6975V63.75C18.5939 71.085 24.5401 77.0312 31.8751 77.0312C33.3421 77.0312 34.5314 75.842 34.5314 74.375C34.5314 72.908 33.3421 71.7188 31.8751 71.7188C27.4741 71.7188 23.9064 68.151 23.9064 63.75V55.6975C23.9064 50.0979 20.8107 45.0819 16.0641 42.5C20.8107 39.9181 23.9064 34.9021 23.9064 29.3025V21.25C23.9064 16.849 27.4741 13.2812 31.8751 13.2812C33.3421 13.2812 34.5314 12.092 34.5314 10.625C34.5314 9.15799 33.3421 7.96875 31.8751 7.96875Z" fill="#5140B5"/>
<path d="M53.1252 7.96875C51.6582 7.96875 50.469 9.15799 50.469 10.625C50.469 12.092 51.6582 13.2812 53.1252 13.2812C57.5262 13.2812 61.094 16.849 61.094 21.25V29.3025C61.094 34.9021 64.1896 39.9181 68.9362 42.5C64.1896 45.0819 61.094 50.0979 61.094 55.6975V63.75C61.094 68.151 57.5262 71.7188 53.1252 71.7188C51.6582 71.7188 50.469 72.908 50.469 74.375C50.469 75.842 51.6582 77.0312 53.1252 77.0312C60.4603 77.0312 66.4065 71.085 66.4065 63.75V55.6975C66.4065 51.2416 69.4391 47.3574 73.762 46.2767C77.6937 45.2938 77.6937 39.7062 73.762 38.7233C69.4391 37.6426 66.4065 33.7584 66.4065 29.3025V21.25C66.4065 13.915 60.4603 7.96875 53.1252 7.96875Z" fill="#5140B5"/>
</svg>
