<svg width="90" height="90" viewBox="0 0 90 90" fill="none" xmlns="http://www.w3.org/2000/svg">
<path d="M48.75 30C50.3033 30 51.5625 28.7408 51.5625 27.1875C51.5625 25.6342 50.3033 24.375 48.75 24.375H45C43.4467 24.375 42.1875 25.6342 42.1875 27.1875C42.1875 28.7408 43.4467 30 45 30H48.75Z" fill="#5140B5"/>
<path d="M57.1875 27.1875C57.1875 25.6342 58.4467 24.375 60 24.375H63.75C65.3033 24.375 66.5625 25.6342 66.5625 27.1875C66.5625 28.7408 65.3033 30 63.75 30H60C58.4467 30 57.1875 28.7408 57.1875 27.1875Z" fill="#5140B5"/>
<path fill-rule="evenodd" clip-rule="evenodd" d="M11.25 27.1875C11.25 18.9032 17.9657 12.1875 26.25 12.1875H63.75C72.0343 12.1875 78.75 18.9032 78.75 27.1875C78.75 35.4718 72.0343 42.1875 63.75 42.1875H26.25C17.9657 42.1875 11.25 35.4718 11.25 27.1875ZM16.875 27.1875C16.875 22.0098 21.0723 17.8125 26.25 17.8125H63.75C68.9277 17.8125 73.125 22.0098 73.125 27.1875C73.125 32.3652 68.9277 36.5625 63.75 36.5625H26.25C21.0723 36.5625 16.875 32.3652 16.875 27.1875Z" fill="#5140B5"/>
<path d="M51.5625 62.8125C51.5625 64.3658 50.3033 65.625 48.75 65.625H45C43.4467 65.625 42.1875 64.3658 42.1875 62.8125C42.1875 61.2592 43.4467 60 45 60H48.75C50.3033 60 51.5625 61.2592 51.5625 62.8125Z" fill="#5140B5"/>
<path d="M60 60C58.4467 60 57.1875 61.2592 57.1875 62.8125C57.1875 64.3658 58.4467 65.625 60 65.625H63.75C65.3033 65.625 66.5625 64.3658 66.5625 62.8125C66.5625 61.2592 65.3033 60 63.75 60H60Z" fill="#5140B5"/>
<path fill-rule="evenodd" clip-rule="evenodd" d="M11.25 62.8125C11.25 54.5282 17.9657 47.8125 26.25 47.8125H63.75C72.0343 47.8125 78.75 54.5282 78.75 62.8125C78.75 71.0968 72.0343 77.8125 63.75 77.8125H26.25C17.9657 77.8125 11.25 71.0968 11.25 62.8125ZM16.875 62.8125C16.875 57.6348 21.0723 53.4375 26.25 53.4375H63.75C68.9277 53.4375 73.125 57.6348 73.125 62.8125C73.125 67.9902 68.9277 72.1875 63.75 72.1875H26.25C21.0723 72.1875 16.875 67.9902 16.875 62.8125Z" fill="#5140B5"/>
</svg>
