<svg width="90" height="90" viewBox="0 0 90 90" fill="none" xmlns="http://www.w3.org/2000/svg">
<path d="M28.125 37.5C31.2316 37.5 33.75 34.9816 33.75 31.875C33.75 28.7684 31.2316 26.25 28.125 26.25C25.0184 26.25 22.5 28.7684 22.5 31.875C22.5 34.9816 25.0184 37.5 28.125 37.5Z" fill="#5140B5"/>
<path fill-rule="evenodd" clip-rule="evenodd" d="M22.5 15H67.5C75.7843 15 82.5 21.7157 82.5 30V60C82.5 68.2843 75.7843 75 67.5 75H22.5C14.2157 75 7.5 68.2843 7.5 60V30C7.5 21.7157 14.2157 15 22.5 15ZM67.5 20.625H22.5C17.3223 20.625 13.125 24.8223 13.125 30V60C13.125 61.4469 13.4528 62.8172 14.0381 64.0408L22.2536 52.7444C26.0334 47.5473 33.8918 47.8948 37.1981 53.4052C38.6285 55.7893 42.1745 55.488 43.1822 52.8968L47.3205 42.2553C49.9616 35.4639 59.2864 34.745 62.9374 41.0511L76.088 63.7658C76.5941 62.6133 76.875 61.3395 76.875 60V30C76.875 24.8223 72.6777 20.625 67.5 20.625ZM22.5 69.375C20.8545 69.375 19.308 68.9511 17.9638 68.2065L26.8028 56.0529C28.212 54.1152 31.142 54.2448 32.3747 56.2993C36.2113 62.6937 45.7219 61.8856 48.4247 54.9355L52.5631 44.294C53.4943 41.8995 56.7821 41.646 58.0693 43.8695L72.129 68.1544C70.7634 68.9313 69.1835 69.375 67.5 69.375H22.5Z" fill="#5140B5"/>
</svg>
