<svg width="90" height="90" viewBox="0 0 90 90" fill="none" xmlns="http://www.w3.org/2000/svg">
<path fill-rule="evenodd" clip-rule="evenodd" d="M33.4369 66.5279L49.8248 69.4198L52.1684 74.1069C54.1715 78.1133 59.5111 78.9798 62.6784 75.8125L76.5337 61.9572C79.701 58.7899 78.8345 53.4504 74.8281 51.4472L70.141 49.1036L67.249 32.7157C66.5461 28.7323 63.5792 25.5276 59.6617 24.5202L24.0826 15.3713C19.2469 14.1279 14.8491 18.5257 16.0925 23.3614L25.2414 58.9405C26.2488 62.858 29.4534 65.8249 33.4369 66.5279ZM41.4403 36.7416L26.4995 21.8008L58.2608 29.968C60.0415 30.4259 61.3901 31.8826 61.7096 33.6932L64.5931 50.0329L50.7541 63.8719L34.4144 60.9884C32.6037 60.6689 31.1471 59.3204 30.6892 57.5397L22.522 25.7783L37.4628 40.7191C35.9646 43.8554 36.5143 47.7256 39.1121 50.3233C42.4071 53.6184 47.7494 53.6184 51.0445 50.3233C54.3395 47.0283 54.3395 41.6859 51.0445 38.3909C48.4468 35.7931 44.5766 35.2434 41.4403 36.7416ZM55.1295 67.4515L68.1726 54.4084L72.3126 56.4783C72.8849 56.7645 73.0087 57.5273 72.5562 57.9798L58.7009 71.835C58.2485 72.2875 57.4857 72.1637 57.1995 71.5914L55.1295 67.4515ZM43.0895 42.3684C44.1879 41.27 45.9687 41.27 47.067 42.3684C48.1654 43.4667 48.1654 45.2475 47.067 46.3458C45.9687 47.4442 44.1879 47.4442 43.0895 46.3458C41.9912 45.2475 41.9912 43.4667 43.0895 42.3684Z" fill="#5140B5"/>
</svg>
