<svg width="90" height="90" viewBox="0 0 90 90" fill="none" xmlns="http://www.w3.org/2000/svg">
<path fill-rule="evenodd" clip-rule="evenodd" d="M63.75 45.0003C63.75 55.3556 55.3553 63.7503 45 63.7503C34.6447 63.7503 26.25 55.3556 26.25 45.0003C26.25 34.645 34.6447 26.2503 45 26.2503C55.3553 26.2503 63.75 34.645 63.75 45.0003ZM58.125 45.0003C58.125 52.249 52.2487 58.1253 45 58.1253C37.7513 58.1253 31.875 52.249 31.875 45.0003C31.875 37.7516 37.7513 31.8753 45 31.8753C52.2487 31.8753 58.125 37.7516 58.125 45.0003Z" fill="#5140B5"/>
<path fill-rule="evenodd" clip-rule="evenodd" d="M23.0024 14.3996C19.4152 16.4707 18.1861 21.0576 20.2572 24.6448C22.5937 28.6918 19.6731 33.7506 15 33.7506C10.8579 33.7506 7.5 37.1085 7.5 41.2506V48.7506C7.5 52.8927 10.8579 56.2506 15 56.2506C19.6731 56.2506 22.5938 61.3094 20.2572 65.3564C18.1862 68.9436 19.4152 73.5305 23.0024 75.6015L29.4976 79.3515C33.0848 81.4226 37.6717 80.1936 39.7428 76.6064C42.0793 72.5594 47.9207 72.5593 50.2572 76.6063C52.3283 80.1935 56.9152 81.4226 60.5024 79.3515L66.9976 75.6015C70.5848 73.5305 71.8138 68.9435 69.7428 65.3563C67.4062 61.3093 70.3269 56.2506 75 56.2506C79.1421 56.2506 82.5 52.8927 82.5 48.7506V41.2506C82.5 37.1085 79.1421 33.7506 75 33.7506C70.3269 33.7506 67.4063 28.6918 69.7428 24.6448C71.8139 21.0576 70.5848 16.4707 66.9976 14.3996L60.5024 10.6496C56.9152 8.57858 52.3283 9.80764 50.2572 13.3948C47.9207 17.4419 42.0793 17.4418 39.7428 13.3948C37.6717 9.80761 33.0848 8.57855 29.4976 10.6496L23.0024 14.3996ZM25.1286 21.8323C24.6108 20.9355 24.9181 19.7888 25.8149 19.271L32.3101 15.521C33.2069 15.0032 34.3536 15.3105 34.8714 16.2073C39.373 24.0043 50.627 24.0044 55.1286 16.2073C55.6464 15.3105 56.7931 15.0033 57.6899 15.521L64.1851 19.271C65.0819 19.7888 65.3892 20.9355 64.8714 21.8323C60.3699 29.6293 65.9967 39.3756 75 39.3756C76.0355 39.3756 76.875 40.2151 76.875 41.2506V48.7506C76.875 49.7861 76.0355 50.6256 75 50.6256C65.9969 50.6256 60.3698 60.3718 64.8714 68.1688C65.3891 69.0656 65.0819 70.2124 64.1851 70.7301L57.6899 74.4801C56.7931 74.9979 55.6464 74.6906 55.1286 73.7938C50.627 65.9968 39.373 65.9969 34.8714 73.7939C34.3537 74.6907 33.2069 74.9979 32.3101 74.4802L25.8149 70.7302C24.9181 70.2124 24.6109 69.0657 25.1286 68.1689C29.6303 60.3718 24.0031 50.6256 15 50.6256C13.9645 50.6256 13.125 49.7861 13.125 48.7506V41.2506C13.125 40.2151 13.9645 39.3756 15 39.3756C24.0033 39.3756 29.6302 29.6293 25.1286 21.8323Z" fill="#5140B5"/>
</svg>
